General                          : ChattChitto RG - Movies [R2L]
==========
Complete name                    : The Roommate 2011 720p BRRip H264 [ChattChitto RG]
Format                           : MPEG-4
Format profile                   : Base Media
Codec ID                         : isom
File size                        : 1.75 GiB
Duration                         : 1h 31mn
Overall bit rate                 : 2 746 Kbps
Encoded date                     : UTC 2011-04-20 03:36:36

Video
==========
ID                               : 1
Format                           : AVC
Format/Info                      : Advanced Video Codec
Format profile                   : High@L4.1
Format settings, CABAC           : Yes
Format settings, ReFrames        : 4 frames
Codec ID                         : avc1
Codec ID/Info                    : Advanced Video Coding
Duration                         : 1h 31mn
Bit rate mode                    : Variable
Bit rate                         : 2 400 Kbps
Maximum bit rate                 : 14.1 Mbps
Width                            : 1 280 pixels
Height                           : 528 pixels
Display aspect ratio             : 2.40:1
Frame rate mode                  : Constant
Frame rate                       : 23.976 fps
Color space                      : YUV
Chroma subsampling               : 4:2:0
Bit depth                        : 8 bits
Scan type                        : Progressive
Bits/(Pixel*Frame)               : 0.148
Stream size                      : 1.53 GiB (87%)
Writing library                  : x264 core 114 r1913 5fd3dce
Encoded date                     : UTC 2011-04-19 21:25:09

Audio
==========
ID                               : 2
Format                           : AAC
Format/Info                      : Advanced Audio Codec
Format profile                   : LC
Codec ID                         : 40
Duration                         : 1h 31mn
Bit rate mode                    : Variable
Bit rate                         : 344 Kbps
Maximum bit rate                 : 431 Kbps
Channel(s)                       : 6 channels
Channel positions                : Front: L C R, Side: L R, LFE
Sampling rate                    : 48.0 KHz
Compression mode                 : Lossy
Stream size                      : 225 MiB (13%)
Encoded date                     : UTC 2011-04-20 03:36:58

Subtitles                        : English | French | Spanish


----------------------------------------------------
IMDB Link: http://www.imdb.com/title/tt1265990/
----------------------------------------------------



Screen Shots:
==============    
http://chattchitto.net/chattchittorg/movies/brrip/2011/the_roommate/1.png 
http://chattchitto.net/chattchittorg/movies/brrip/2011/the_roommate/2.png 
http://chattchitto.net/chattchittorg/movies/brrip/2011/the_roommate/3.png 
http://chattchitto.net/chattchittorg/movies/brrip/2011/the_roommate/4.png 
http://chattchitto.net/chattchittorg/movies/brrip/2011/the_roommate/5.png 
http://chattchitto.net/chattchittorg/movies/brrip/2011/the_roommate/6.png 
http://chattchitto.net/chattchittorg/movies/brrip/2011/the_roommate/7.png



ScreenShots Comparison:
=========================  
http://screenshotcomparison.com/comparison/45361



Plot:
======
College student Sara finds that her new roommate Rebecca has an obsession with her, which quickly turns violent.



Release Info:
==============
original name .... : The Roommate 2011 720p BRRip H264 [ChattChitto RG]
ripper.............: CROSSBOW
encoder............: Recalled2Life (R2L)
video codec........: H264/.MP4
video bitrate......: 2400
audio codec........: AAC-LC
aspect ratio.......: 2.40:1
resolution.........: 1280 x 528
genre..............: Drama | Thriller
runtime............: 1h 31mn
language...........: English
rating.............: PG-13
subtitles..........: English | French | Spanish
sample.............: Yes
2ch Audio..........: 2ch Audio for XBox Viewers
Compatibility .....: XBox | PS3 | WD Live



Source:
========
The.Roommate.2011.720p.BluRay.x264-CROSSBOW  THANKS!



Notes:
=======
ChattChitto RG Encourages Burning this Film with ConvertXtoDVD and Playing with VLC media player.
XBox 360 | PS3 | WD Live - Compatible 
Enhanced for your viewing pleasure ;)